<svg aria-hidden="true" style="position: absolute; width: 0; height: 0; overflow: hidden;" version="1.1" xmlns="http://www.w3.org/2000/svg" xmlns:xlink="http://www.w3.org/1999/xlink">
  <defs>
    <symbol id="arrow-long-left" viewBox="0 0 64 32">
      <path d="M16.896 2.304c0.434 0.434 0.702 1.034 0.702 1.696s-0.268 1.262-0.702 1.696l-7.904 7.904h51.808c1.325 0 2.4 1.075 2.4 2.4s-1.075 2.4-2.4 2.4v0h-51.808l7.904 7.904c0.471 0.439 0.764 1.063 0.764 1.756 0 1.325-1.075 2.4-2.4 2.4-0.693 0-1.317-0.293-1.755-0.762l-0.001-0.001-12-12c-0.434-0.434-0.702-1.034-0.702-1.696s0.268-1.262 0.702-1.696l12-12c0.434-0.434 1.034-0.702 1.696-0.702s1.262 0.268 1.696 0.702l-0-0z"></path>
    </symbol>
    <symbol id="arrow-right-on-rectangle" viewBox="0 0 30 32">
      <path stroke-linejoin="round" stroke-linecap="round" stroke-miterlimit="4" stroke-width="1.6" d="M18.8 11.2v-6c0-1.988-1.612-3.6-3.6-3.6v0h-9.6c-1.988 0-3.6 1.612-3.6 3.6v0 21.6c0 1.988 1.612 3.6 3.6 3.6v0h9.6c1.988 0 3.6-1.612 3.6-3.6v0-6M23.6 20.8l4.8-4.8M28.4 16l-4.8-4.8M28.4 16h-20.4"></path>
    </symbol>
    <symbol id="arrow-up-tray" viewBox="0 0 32 32">
      <path stroke-linejoin="round" stroke-linecap="round" stroke-miterlimit="4" stroke-width="1.6" d="M1.6 23.2v3.6c0 1.988 1.612 3.6 3.6 3.6v0h21.6c1.988 0 3.6-1.612 3.6-3.6v0-3.6M8.8 8.8l7.2-7.2M16 1.6l7.2 7.2M16 1.6v21.6"></path>
    </symbol>
    <symbol id="calendar-days" viewBox="0 0 32 32">
      <path fill="none" stroke="#407bff" style="stroke: var(--color1, #407bff)" stroke-linejoin="round" stroke-linecap="round" stroke-miterlimit="4" stroke-width="2" d="M7.25 1v3.75M24.75 1v3.75M1 27.25v-18.75c0-2.071 1.679-3.75 3.75-3.75v0h22.5c2.071 0 3.75 1.679 3.75 3.75v0 18.75M1 27.25c0 2.071 1.679 3.75 3.75 3.75v0h22.5c2.071 0 3.75-1.679 3.75-3.75v0M1 27.25v-12.5c0-2.071 1.679-3.75 3.75-3.75v0h22.5c2.071 0 3.75 1.679 3.75 3.75v0 12.5M16 17.25h0.013v0.013h-0.013v-0.013zM16 21h0.013v0.013h-0.013v-0.013zM16 24.75h0.013v0.013h-0.013v-0.013zM12.25 21h0.013v0.013h-0.013v-0.013zM12.25 24.75h0.013v0.013h-0.013v-0.013zM8.5 21h0.013v0.013h-0.013v-0.013zM8.5 24.75h0.013v0.013h-0.013v-0.013zM19.75 17.25h0.013v0.013h-0.013v-0.013zM19.75 21h0.013v0.013h-0.013v-0.013zM19.75 24.75h0.013v0.013h-0.013v-0.013zM23.5 17.25h0.013v0.013h-0.013v-0.013zM23.5 21h0.013v0.013h-0.013v-0.013z"></path>
    </symbol>
    <symbol id="chevron-double-up" viewBox="0 0 58 32">
      <path d="M30.496 29.696c-0.434 0.434-1.034 0.702-1.696 0.702s-1.262-0.268-1.696-0.702l-24-24c-0.399-0.427-0.644-1.003-0.644-1.636 0-1.325 1.075-2.4 2.4-2.4 0.633 0 1.209 0.245 1.638 0.645l-0.001-0.001 22.304 22.304 22.304-22.304c0.439-0.471 1.063-0.764 1.756-0.764 1.325 0 2.4 1.075 2.4 2.4 0 0.692-0.293 1.317-0.762 1.755l-0.001 0.001-24 24z"></path>
    </symbol>
    <symbol id="cog-tooth" viewBox="0 0 32 32">
      <path stroke-linejoin="round" stroke-linecap="round" stroke-miterlimit="4" stroke-width="1.6" d="M12.15 3.104c0.144-0.867 0.896-1.504 1.776-1.504h4.149c0.88 0 1.632 0.637 1.776 1.504l0.341 2.050c0.101 0.598 0.501 1.098 1.032 1.392 0.118 0.064 0.235 0.133 0.352 0.203 0.518 0.314 1.152 0.411 1.72 0.198l1.947-0.73c0.188-0.073 0.406-0.115 0.634-0.115 0.662 0 1.241 0.358 1.554 0.891l0.005 0.008 2.074 3.595c0.151 0.258 0.241 0.568 0.241 0.899 0 0.559-0.254 1.058-0.654 1.388l-0.003 0.002-1.605 1.323c-0.469 0.384-0.701 0.981-0.688 1.587v0.408c-0.013 0.605 0.219 1.2 0.688 1.584l1.606 1.325c0.678 0.56 0.854 1.526 0.416 2.288l-2.077 3.595c-0.317 0.542-0.896 0.9-1.559 0.9-0.227 0-0.444-0.042-0.644-0.119l0.012 0.004-1.947-0.73c-0.568-0.213-1.2-0.115-1.722 0.198-0.069 0.045-0.184 0.112-0.301 0.178l-0.051 0.027c-0.528 0.293-0.928 0.792-1.030 1.39l-0.341 2.048c-0.144 0.869-0.896 1.506-1.776 1.506h-4.15c-0.88 0-1.632-0.637-1.776-1.504l-0.341-2.050c-0.099-0.598-0.499-1.098-1.030-1.392-0.168-0.092-0.284-0.159-0.397-0.229l0.045 0.026c-0.52-0.314-1.152-0.411-1.722-0.198l-1.947 0.73c-0.188 0.073-0.405 0.115-0.632 0.115-0.662 0-1.241-0.358-1.554-0.89l-0.005-0.008-2.075-3.595c-0.151-0.258-0.241-0.568-0.241-0.899 0-0.559 0.254-1.058 0.654-1.388l0.003-0.002 1.606-1.323c0.467-0.384 0.699-0.981 0.688-1.587-0.001-0.061-0.002-0.132-0.002-0.204s0.001-0.143 0.002-0.215l-0 0.011c0.011-0.605-0.221-1.2-0.688-1.584l-1.606-1.325c-0.402-0.333-0.656-0.832-0.656-1.39 0-0.331 0.089-0.64 0.245-0.907l-0.005 0.009 2.075-3.595c0.317-0.542 0.896-0.901 1.559-0.901 0.227 0 0.445 0.042 0.645 0.119l-0.012-0.004 1.946 0.73c0.57 0.213 1.202 0.115 1.722-0.198 0.115-0.070 0.234-0.139 0.352-0.205 0.531-0.293 0.931-0.792 1.030-1.39l0.342-2.050z"></path>
      <path stroke-linejoin="round" stroke-linecap="round" stroke-miterlimit="4" stroke-width="1.6" d="M20.8 16c0 2.651-2.149 4.8-4.8 4.8s-4.8-2.149-4.8-4.8v0c0-2.651 2.149-4.8 4.8-4.8s4.8 2.149 4.8 4.8v0z"></path>
    </symbol>
    <symbol id="eye" viewBox="0 0 44 32">
      <path stroke-linejoin="round" stroke-linecap="round" stroke-miterlimit="4" stroke-width="2" d="M2.072 16.644c-0.066-0.191-0.104-0.41-0.104-0.639s0.038-0.448 0.108-0.653l-0.004 0.014c2.774-8.346 10.648-14.366 19.928-14.366 9.276 0 17.146 6.014 19.926 14.356 0.14 0.414 0.14 0.862 0 1.278-2.772 8.346-10.646 14.366-19.926 14.366-9.276 0-17.148-6.014-19.928-14.356z"></path>
      <path stroke-linejoin="round" stroke-linecap="round" stroke-miterlimit="4" stroke-width="2" d="M28 16c0 3.314-2.686 6-6 6s-6-2.686-6-6v0c0-3.314 2.686-6 6-6s6 2.686 6 6v0z"></path>
    </symbol>
    <symbol id="eye-slash" viewBox="0 0 35 32">
      <path stroke-linejoin="round" stroke-linecap="round" stroke-miterlimit="4" stroke-width="1.6" d="M4.768 9.957c-1.443 1.695-2.565 3.712-3.242 5.924l-0.031 0.119c2.067 6.941 8.496 12 16.106 12 1.589 0 3.125-0.221 4.581-0.632M8.365 6.765c2.592-1.733 5.78-2.765 9.209-2.765 0.009 0 0.018 0 0.027 0h-0.001c7.61 0 14.037 5.059 16.104 11.997-1.182 3.873-3.609 7.069-6.807 9.2l-0.062 0.039M8.365 6.765l-5.165-5.165M8.365 6.765l5.84 5.84M26.835 25.235l5.165 5.165M26.835 25.235l-5.84-5.84c0.885-0.871 1.434-2.083 1.434-3.422 0-2.651-2.149-4.8-4.8-4.8-1.339 0-2.55 0.548-3.421 1.433l-0.001 0.001M20.995 19.394l-6.786-6.786"></path>
    </symbol>
    <symbol id="glass-of-water" viewBox="0 0 25 32">
      <path  d="M0 0l2.282 31.635v0.086h19.638l2.283-31.623v-0.098h-24.203zM21.115 30.835h-18.021l-1.71-23.696h0.941l1.547 20.883c0.010 0.11 0.059 0.213 0.139 0.288 0.079 0.075 0.183 0.117 0.292 0.118h0.036c0.119-0.008 0.224-0.064 0.296-0.149l0-0.001c0.065-0.076 0.105-0.175 0.105-0.284 0-0.012-0-0.024-0.001-0.035l0 0.002-1.547-20.821h19.634l-1.711 23.695zM22.885 6.253h-19.76l-0.339-4.615c-0.011-0.117-0.065-0.219-0.146-0.292l-0-0c-0.078-0.071-0.182-0.114-0.296-0.114-0.003 0-0.005 0-0.008 0h0c-0.119 0.012-0.222 0.069-0.294 0.154l-0.001 0.001c-0.067 0.078-0.107 0.181-0.107 0.293 0 0.009 0 0.019 0.001 0.028l-0-0.001 0.34 4.555h-0.954l-0.388-5.381h22.34l-0.388 5.373z"></path>
      <path  d="M6.954 11.522c0.283 0 0.56-0.085 0.795-0.245 0.236-0.16 0.419-0.386 0.528-0.652 0.069-0.164 0.108-0.355 0.108-0.555 0-0.4-0.16-0.763-0.419-1.029l0 0c-0.257-0.263-0.615-0.426-1.011-0.426-0.198 0-0.387 0.041-0.559 0.115l0.009-0.004c-0.267 0.114-0.486 0.298-0.64 0.529l-0.003 0.005c-0.152 0.227-0.242 0.507-0.242 0.807 0 0.4 0.16 0.763 0.42 1.028l-0-0c0.269 0.272 0.634 0.426 1.013 0.426zM6.954 9.497c0 0 0 0 0 0 0.235 0 0.436 0.145 0.519 0.35l0.001 0.004c0.027 0.065 0.043 0.14 0.043 0.218 0 0.157-0.063 0.3-0.164 0.405l0-0c-0.102 0.104-0.244 0.168-0.401 0.168-0.31 0-0.562-0.252-0.562-0.562 0-0.004 0-0.008 0-0.012v0.001c0-0 0-0.001 0-0.001 0-0.157 0.063-0.299 0.164-0.403l-0 0c0.107-0.107 0.25-0.167 0.4-0.167zM6.947 16.242c0.003 0.287 0.091 0.565 0.251 0.803 0.16 0.236 0.384 0.419 0.647 0.526 0.158 0.067 0.342 0.105 0.535 0.105 0.4 0 0.761-0.166 1.018-0.433l0-0c0.254-0.264 0.411-0.624 0.411-1.020 0-0.203-0.041-0.397-0.116-0.573l0.004 0.010c-0.113-0.268-0.295-0.488-0.525-0.644l-0.005-0.003c-0.222-0.151-0.495-0.241-0.79-0.241-0.4 0-0.762 0.166-1.020 0.433l-0 0c-0.254 0.262-0.411 0.619-0.411 1.013 0 0.008 0 0.017 0 0.025l-0-0.001zM8.938 16.242c-0.001 0.236-0.142 0.438-0.345 0.528l-0.004 0.001c-0.064 0.028-0.138 0.044-0.216 0.044-0.156 0-0.297-0.064-0.398-0.167l-0-0c-0.101-0.104-0.163-0.245-0.163-0.401 0-0.313 0.25-0.568 0.561-0.576h0.001c0.149 0 0.292 0.060 0.399 0.167 0.106 0.107 0.165 0.253 0.165 0.405zM17.122 16.279c0.283 0 0.56-0.085 0.796-0.245 0.235-0.16 0.419-0.386 0.527-0.651 0.069-0.164 0.109-0.356 0.109-0.556 0-0.4-0.16-0.763-0.419-1.028l0 0c-0.257-0.263-0.615-0.426-1.011-0.426-0.198 0-0.387 0.041-0.559 0.115l0.009-0.004c-0.267 0.114-0.486 0.299-0.64 0.53l-0.003 0.005c-0.151 0.227-0.241 0.506-0.241 0.806 0 0.4 0.16 0.763 0.42 1.028l-0-0c0.268 0.272 0.633 0.426 1.012 0.426zM17.122 14.26c0.001 0 0.001 0 0.002 0 0.235 0 0.437 0.146 0.519 0.351l0.001 0.004c0.026 0.064 0.042 0.138 0.042 0.216 0 0.159-0.064 0.303-0.168 0.408l0-0c-0.102 0.104-0.244 0.168-0.4 0.168-0.31 0-0.561-0.251-0.561-0.561 0-0.007 0-0.014 0-0.021l-0 0.001c0.001-0.157 0.065-0.298 0.168-0.401l-0 0c0.106-0.106 0.249-0.165 0.397-0.165zM12.134 13.54c0.284 0 0.56-0.085 0.796-0.245 0.235-0.159 0.419-0.386 0.527-0.651 0.069-0.164 0.109-0.355 0.109-0.555 0-0.4-0.159-0.763-0.418-1.028l0 0c-0.257-0.263-0.615-0.426-1.011-0.426-0.198 0-0.387 0.041-0.559 0.115l0.009-0.004c-0.267 0.114-0.486 0.297-0.64 0.528l-0.003 0.005c-0.152 0.227-0.242 0.507-0.242 0.807 0 0.4 0.16 0.763 0.42 1.028l-0-0c0.269 0.273 0.633 0.427 1.013 0.427zM12.134 11.516c0.001 0 0.001 0 0.002 0 0.235 0 0.435 0.145 0.518 0.349l0.001 0.004c0.027 0.065 0.043 0.14 0.043 0.219 0 0.158-0.063 0.301-0.166 0.405l0-0c-0.102 0.103-0.243 0.166-0.399 0.166-0.078 0-0.152-0.016-0.219-0.044l0.004 0.001c-0.207-0.087-0.349-0.288-0.349-0.522 0-0.002 0-0.005 0-0.007v0c-0-0.009-0.001-0.019-0.001-0.029 0-0.153 0.059-0.292 0.156-0.396l-0 0c0.103-0.109 0.248-0.177 0.409-0.178h0v0.031zM9.405 21.776c0.005 0.236 0.080 0.465 0.213 0.658s0.32 0.341 0.538 0.428c0.128 0.053 0.277 0.083 0.433 0.083 0.333 0 0.633-0.139 0.845-0.362l0-0c0.209-0.216 0.337-0.511 0.337-0.836 0-0.169-0.035-0.329-0.097-0.475l0.003 0.008c-0.093-0.221-0.243-0.402-0.432-0.531l-0.004-0.003c-0.183-0.125-0.41-0.2-0.654-0.201h-0c-0.33 0.009-0.626 0.15-0.838 0.371l-0 0c-0.213 0.222-0.345 0.525-0.345 0.858 0 0.001 0 0.001 0 0.002v-0zM10.588 21.456c0 0 0 0 0.001 0 0.131 0 0.243 0.081 0.29 0.195l0.001 0.002c0.015 0.036 0.024 0.078 0.024 0.122 0 0.088-0.035 0.168-0.092 0.227l0-0c-0.057 0.057-0.136 0.093-0.223 0.093-0.109 0-0.206-0.056-0.262-0.141l-0.001-0.001c-0.033-0.050-0.053-0.111-0.053-0.177 0-0.088 0.035-0.168 0.092-0.226l-0 0c0.057-0.058 0.136-0.094 0.223-0.094h0zM15.125 20.441c0.243 0.009 0.483-0.058 0.689-0.189 0.205-0.133 0.365-0.32 0.462-0.54l0.003-0.008c0.064-0.145 0.102-0.315 0.102-0.493 0-0.337-0.134-0.643-0.35-0.867l0 0c-0.218-0.225-0.523-0.365-0.861-0.365-0.172 0-0.336 0.036-0.484 0.102l0.008-0.003c-0.224 0.096-0.414 0.259-0.545 0.467-0.121 0.189-0.193 0.419-0.193 0.666 0 0.337 0.134 0.642 0.351 0.866l-0-0c0.218 0.224 0.511 0.353 0.819 0.365zM15.125 18.919c0.084 0 0.164 0.034 0.224 0.094 0.058 0.058 0.093 0.138 0.093 0.227s-0.036 0.169-0.093 0.227l0-0c-0.057 0.058-0.136 0.094-0.224 0.094s-0.167-0.036-0.224-0.094l-0-0c-0.058-0.058-0.095-0.138-0.096-0.227v-0c0-0 0-0 0-0 0-0.089 0.036-0.17 0.094-0.228l-0 0c0.057-0.057 0.136-0.092 0.223-0.092 0.002 0 0.003 0 0.005 0h-0zM17.626 10.507c0.24 0 0.475-0.073 0.674-0.208 0.198-0.136 0.352-0.324 0.444-0.544l0.003-0.008c0.058-0.139 0.091-0.3 0.091-0.469 0-0.339-0.135-0.647-0.355-0.872l0 0c-0.219-0.222-0.523-0.359-0.86-0.359-0.167 0-0.326 0.034-0.471 0.095l0.008-0.003c-0.226 0.097-0.411 0.252-0.541 0.448l-0.003 0.004c-0.128 0.193-0.205 0.429-0.205 0.684 0 0.339 0.136 0.647 0.357 0.872l-0-0c0.227 0.23 0.535 0.361 0.858 0.361zM17.626 8.986c0.026-0.008 0.057-0.013 0.088-0.013 0.123 0 0.23 0.072 0.28 0.176l0.001 0.002c0.021 0.041 0.033 0.090 0.033 0.142 0 0.104-0.049 0.196-0.125 0.256l-0.001 0.001c-0.052 0.041-0.119 0.065-0.191 0.065-0.030 0-0.060-0.004-0.087-0.012l0.002 0.001c-0.026 0.008-0.056 0.013-0.088 0.013-0.123 0-0.23-0.072-0.281-0.176l-0.001-0.002c-0.021-0.042-0.033-0.091-0.033-0.143 0-0.104 0.049-0.197 0.125-0.256l0.001-0.001c0.052-0.040 0.118-0.064 0.19-0.064 0.031 0 0.060 0.004 0.088 0.013l-0.002-0.001zM5.764 29.291c-0.11 0.052-0.194 0.146-0.232 0.26l-0.001 0.003c-0.014 0.041-0.022 0.089-0.022 0.139 0 0.078 0.020 0.152 0.055 0.216l-0.001-0.002c0.075 0.141 0.22 0.237 0.388 0.24h0c0.004 0 0.008 0 0.012 0 0.066 0 0.129-0.016 0.184-0.044l-0.002 0.001c1.738-0.923 3.798-1.468 5.985-1.477h0.003c2.205 0.032 4.378 0.529 6.383 1.458 0.059 0.032 0.129 0.051 0.203 0.051 0.113 0 0.216-0.044 0.293-0.115l-0 0c0.089-0.081 0.144-0.198 0.144-0.327 0-0.061-0.012-0.119-0.034-0.172l0.001 0.003c-0.044-0.109-0.125-0.195-0.228-0.244l-0.003-0.001c-1.981-0.942-4.3-1.506-6.748-1.539l-0.011-0c-2.214 0.002-4.397 0.533-6.37 1.551z"></path>
    </symbol>
    <symbol id="minus-small" viewBox="0 0 224 32">
      <path d="M4 16c0-6.627 5.373-12 12-12v0h192c6.627 0 12 5.373 12 12s-5.373 12-12 12v0h-192c-6.627 0-12-5.373-12-12v0z"></path>
    </symbol>
    <symbol id="pensil-aquare" viewBox="0 0 32 32">
      <path stroke-linejoin="round" stroke-linecap="round" stroke-miterlimit="4" stroke-width="1.5238" d="M22.647 5.314l2.571-2.572c0.517-0.517 1.232-0.837 2.021-0.837 1.578 0 2.858 1.279 2.858 2.858 0 0.789-0.32 1.503-0.837 2.021l-16.181 16.181c-0.783 0.783-1.755 1.377-2.842 1.709l-0.049 0.013-4.091 1.219 1.219-4.091c0.345-1.135 0.939-2.107 1.722-2.891l13.611-13.609zM22.647 5.314l4.020 4.020M24.381 19.81v7.238c0 1.894-1.535 3.429-3.429 3.429v0h-16c-1.894 0-3.429-1.535-3.429-3.429v0-16c0-1.894 1.535-3.429 3.429-3.429v0h7.238"></path>
    </symbol>
    <symbol id="plus-circle" viewBox="0 0 32 32">
      <path stroke-linejoin="round" stroke-linecap="round" stroke-miterlimit="4" stroke-width="1.6" d="M16 11.2v9.6M20.8 16h-9.6M30.4 16c0 7.953-6.447 14.4-14.4 14.4s-14.4-6.447-14.4-14.4v0c0-7.953 6.447-14.4 14.4-14.4s14.4 6.447 14.4 14.4v0z"></path>
    </symbol>
    <symbol id="plus-small" viewBox="0 0 32 32">
      <path stroke-linejoin="round" stroke-linecap="round" stroke-miterlimit="4" stroke-width="2.2857" d="M16 2.286v27.429M29.714 16h-27.429"></path>
    </symbol>
    <symbol id="presentation-chart-bar" viewBox="0 0 36 32">
      <path fill="none" stroke="#407bff" style="stroke: var(--color1, #407bff)" stroke-linejoin="round" stroke-linecap="round" stroke-miterlimit="4" stroke-width="2" d="M4.25 1v18.75c0 2.071 1.679 3.75 3.75 3.75v0h3.75M4.25 1h-2.5M4.25 1h27.5M11.75 23.5h12.5M11.75 23.5l-1.667 5M31.75 1h2.5M31.75 1v18.75c0 2.071-1.679 3.75-3.75 3.75v0h-3.75M24.25 23.5l1.667 5M10.083 28.5h15.834M10.083 28.5l-0.833 2.5M25.917 28.5l0.833 2.5M13 14.75v2.5M18 11v6.25M23 7.25v10"></path>
    </symbol>
    <symbol id="trash" viewBox="0 0 26 32">
      <path stroke-linejoin="round" stroke-linecap="round" stroke-miterlimit="4" stroke-width="1.4545" d="M17.076 11.636l-0.503 13.091M9.609 24.727l-0.503-13.091M23.604 6.967c0.497 0.076 0.992 0.156 1.487 0.241M23.604 6.967l-1.553 20.193c-0.135 1.696-1.544 3.021-3.263 3.021-0 0-0.001 0-0.001 0h-11.392c-0 0-0.001 0-0.001 0-1.719 0-3.128-1.325-3.262-3.010l-0.001-0.011-1.553-20.193M23.604 6.967c-1.322-0.217-3.059-0.422-4.813-0.562l-0.246-0.016M2.577 6.967c-0.861 0.123-1.366 0.207-1.87 0.297l0.383-0.057M2.577 6.967c1.322-0.217 3.059-0.422 4.813-0.562l0.246-0.016M18.545 6.39v-1.332c0-1.716-1.324-3.148-3.040-3.201-0.72-0.025-1.565-0.039-2.415-0.039s-1.695 0.014-2.537 0.042l0.123-0.003c-1.716 0.054-3.040 1.487-3.040 3.201v1.332M18.545 6.39c-1.633-0.134-3.535-0.21-5.455-0.21s-3.821 0.076-5.703 0.226l0.248-0.016"></path>
    </symbol>
    <symbol id="user" viewBox="0 0 32 32">
      <path stroke-linejoin="miter" stroke-linecap="butt" stroke-miterlimit="4" stroke-width="1.3333" d="M31.333 16c0 8.468-6.865 15.333-15.333 15.333s-15.333-6.865-15.333-15.333c0-8.468 6.865-15.333 15.333-15.333s15.333 6.865 15.333 15.333z"></path>
      <path stroke-linejoin="round" stroke-linecap="round" stroke-miterlimit="4" stroke-width="1.3333" d="M20 9.436c0 1.088-0.421 2.132-1.171 2.901-0.717 0.739-1.72 1.198-2.829 1.2h-0c-1.11-0.002-2.112-0.461-2.828-1.199l-0.001-0.001c-0.724-0.747-1.171-1.767-1.171-2.891 0-0.004 0-0.007 0-0.010v0.001c0-1.088 0.421-2.132 1.171-2.901 0.717-0.739 1.719-1.199 2.829-1.201h0c1.061 0 2.079 0.432 2.829 1.201 0.749 0.769 1.171 1.813 1.171 2.901zM8 24.88c0.032-2.23 0.938-4.243 2.39-5.716l-0.001 0.001c1.43-1.45 3.415-2.35 5.61-2.355h0.001c2.1 0 4.115 0.845 5.611 2.356 1.451 1.472 2.357 3.484 2.389 5.707l0 0.006c-2.338 1.128-5.084 1.787-7.983 1.787-0.006 0-0.012 0-0.018 0h0.001c-2.855 0-5.564-0.64-8-1.787z"></path>
    </symbol>
    <symbol id="wrench-screwdriver" viewBox="0 0 32 32">
      <path fill="none" stroke="#407bff" style="stroke: var(--color1, #407bff)" stroke-linejoin="round" stroke-linecap="round" stroke-miterlimit="4" stroke-width="1.7778" d="M15.14 20.696l8.637 8.637c0.706 0.684 1.67 1.106 2.733 1.106 2.17 0 3.929-1.759 3.929-3.929 0-1.063-0.422-2.026-1.107-2.734l0.001 0.001-8.707-8.707M15.14 20.696l3.698-4.489c0.47-0.569 1.097-0.927 1.79-1.134 0.814-0.244 1.723-0.279 2.582-0.208 0.171 0.016 0.369 0.024 0.57 0.024 3.682 0 6.667-2.985 6.667-6.667 0-0.994-0.218-1.938-0.608-2.786l0.017 0.041-4.853 4.855c-1.659-0.393-2.94-1.675-3.327-3.303l-0.006-0.030 4.853-4.853c-0.806-0.373-1.75-0.591-2.744-0.591-3.682 0-6.667 2.985-6.667 6.667 0 0.201 0.009 0.4 0.026 0.596l-0.002-0.025c0.135 1.594-0.105 3.354-1.339 4.37l-0.151 0.126M15.14 20.696l-6.896 8.375c-0.698 0.846-1.746 1.381-2.919 1.381-2.085 0-3.775-1.69-3.775-3.775 0-1.173 0.535-2.222 1.375-2.914l0.006-0.005 10.129-8.34-6.084-6.084h-2.087l-3.333-5.556 2.222-2.222 5.556 3.333v2.087l6.311 6.311-2.585 2.129M25.444 25.444l-3.889-3.889M5.433 26.556h0.012v0.012h-0.012v-0.012z"></path>
    </symbol>
    <symbol id="close-icon" viewBox="0 0 32 32">
      <path stroke-linejoin="round" stroke-linecap="round" stroke-miterlimit="4" stroke-width="1.7778" d="M24 8l-16 16"></path>
      <path stroke-linejoin="round" stroke-linecap="round" stroke-miterlimit="4" stroke-width="1.7778" d="M8 8l16 16"></path>
    </symbol>
    <symbol id="chevron-left" viewBox="0 0 19 32">
      <path d="M1.61 16.992c-0.254-0.254-0.411-0.605-0.411-0.992s0.157-0.738 0.411-0.992l14-13.994c0.258-0.287 0.63-0.467 1.045-0.467 0.774 0 1.402 0.628 1.402 1.402 0 0.414-0.179 0.785-0.464 1.042l-0.001 0.001-13.014 13.008 13.011 13.011c0.253 0.253 0.409 0.603 0.409 0.989 0 0.773-0.627 1.399-1.399 1.399-0.387 0-0.737-0.157-0.99-0.411l-13.997-13.997z"></path>
    </symbol>
    <symbol id="chevron-right" viewBox="0 0 19 32">
      <path d="M17.59 16.992c0.254-0.254 0.411-0.605 0.411-0.992s-0.157-0.738-0.411-0.992l-14-13.994c-0.258-0.287-0.63-0.467-1.045-0.467-0.774 0-1.402 0.628-1.402 1.402 0 0.414 0.179 0.785 0.464 1.042l0.001 0.001 13.014 13.008-13.014 13.011c-0.253 0.253-0.409 0.603-0.409 0.989 0 0.773 0.627 1.399 1.399 1.399 0.387 0 0.737-0.157 0.99-0.411l14-13.997z"></path>
    </symbol>
  </defs>
</svg>